<?xml version="1.0" encoding="UTF-8"?>
<svg width="16px" height="11px" viewBox="0 0 16 11" version="1.1" xmlns="http://www.w3.org/2000/svg" xmlns:xlink="http://www.w3.org/1999/xlink">
    <!-- Generator: Sketch 42 (36781) - http://www.bohemiancoding.com/sketch -->
    <title>Shape</title>
    <desc>Created with Sketch.</desc>
    <defs>
        <linearGradient x1="50.0014671%" y1="0%" x2="50.0014671%" y2="100%" id="linearGradient-1">
            <stop stop-color="#E52D27" offset="0%"></stop>
            <stop stop-color="#BF171D" offset="100%"></stop>
        </linearGradient>
    </defs>
    <g id="Upload-Flow" stroke="none" stroke-width="1" fill="none" fill-rule="evenodd">
        <g id="Canvas-Collection---Processing" transform="translate(-465.000000, -850.000000)" fill="url(#linearGradient-1)">
            <g id="Videos" transform="translate(121.000000, 99.000000)">
                <g id="Card-9" transform="translate(331.000000, 544.000000)">
                    <g id="Title+Author" transform="translate(0.000000, 176.000000)">
                        <g id="icon-youtube" transform="translate(13.000000, 31.000000)">
                            <path d="M15.4708345,2.37104312 C15.4708345,2.37104312 15.3178442,1.29414465 14.85,0.820027816 C14.2557858,0.197510431 13.5890542,0.194297636 13.2841446,0.158038943 C11.0973018,0 7.81703755,0 7.81703755,0 L7.81030598,0 C7.81030598,0 4.53004172,0 2.34319889,0.158038943 C2.03828929,0.194297636 1.3718637,0.197510431 0.777343533,0.820027816 C0.309499305,1.29414465 0.15650904,2.37104312 0.15650904,2.37104312 C0.15650904,2.37104312 0,3.63566064 0,4.90027816 L0,6.08579972 C0,7.35041725 0.15650904,8.61503477 0.15650904,8.61503477 C0.15650904,8.61503477 0.309499305,9.69193324 0.777343533,10.1662031 C1.3718637,10.7885675 2.15272601,10.7689847 2.50047288,10.8341586 C3.75070932,10.9541029 7.81367177,10.9911266 7.81367177,10.9911266 C7.81367177,10.9911266 11.0973018,10.9862309 13.2841446,10.8280389 C13.5901252,10.7916273 14.2556328,10.7885675 14.85,10.1660501 C15.3178442,9.69193324 15.4708345,8.61503477 15.4708345,8.61503477 C15.4708345,8.61503477 15.6268846,7.35041725 15.6268846,6.08579972 L15.6268846,4.90027816 C15.6271905,3.63566064 15.4708345,2.37104312 15.4708345,2.37104312 L15.4708345,2.37104312 Z M6.19962448,7.52253129 L6.19962448,3.13171071 L10.4221558,5.33477051 L6.19962448,7.52253129 Z" id="Shape"></path>
                        </g>
                    </g>
                </g>
            </g>
        </g>
    </g>
</svg>